<?xml version="1.0" encoding="UTF-8" standalone="no"?>
<svg
   xmlns:osb="http://www.openswatchbook.org/uri/2009/osb"
   xmlns:dc="http://purl.org/dc/elements/1.1/"
   xmlns:cc="http://creativecommons.org/ns#"
   xmlns:rdf="http://www.w3.org/1999/02/22-rdf-syntax-ns#"
   xmlns:svg="http://www.w3.org/2000/svg"
   xmlns="http://www.w3.org/2000/svg"
   xmlns:sodipodi="http://sodipodi.sourceforge.net/DTD/sodipodi-0.dtd"
   xmlns:inkscape="http://www.inkscape.org/namespaces/inkscape"
   version="1.1"
   id="svg833"
   xml:space="preserve"
   width="781.24054"
   height="344.91293"
   viewBox="0 0 781.24054 344.91293"
   sodipodi:docname="aa logo.svg"><metadata
     id="metadata839"><rdf:RDF><cc:Work
         rdf:about=""><dc:format>image/svg+xml</dc:format><dc:type
           rdf:resource="http://purl.org/dc/dcmitype/StillImage" /><dc:title /></cc:Work></rdf:RDF></metadata><defs
     id="defs837"><linearGradient
       osb:paint="solid"
       id="linearGradient1773"><stop
         id="stop1771"
         offset="0"
         style="stop-color:#8d1caf;stop-opacity:1;" /></linearGradient><clipPath
       clipPathUnits="userSpaceOnUse"
       id="clipPath849"><path
         d="M 0,612 H 792 V 0 H 0 Z"
         id="path847" /></clipPath></defs><sodipodi:namedview
     inkscape:document-rotation="0"
     pagecolor="#ffffff"
     bordercolor="#666666"
     borderopacity="1"
     objecttolerance="10"
     gridtolerance="10"
     guidetolerance="10"
     inkscape:pageopacity="0"
     inkscape:pageshadow="2"
     inkscape:window-width="1904"
     inkscape:window-height="1027"
     id="namedview835"
     showgrid="false"
     inkscape:zoom="1.2348485"
     inkscape:cx="477.12942"
     inkscape:cy="139.71226"
     inkscape:window-x="8"
     inkscape:window-y="170"
     inkscape:window-maximized="0"
     inkscape:current-layer="g843" /><g
     style="display:inline"
     id="g841"
     inkscape:groupmode="layer"
     inkscape:label="AA Logo RefBlu18"
     transform="matrix(1.3333333,0,0,-1.3333333,-139.8268,609.53785)"><g
       id="g843"><g
         transform="translate(104.8701,293.70272)"
         id="g851"><path
           id="path853"
           style="fill:#112594;fill-opacity:1;fill-rule:nonzero;stroke:none"
           d="m 0,0 h 34.201 v 6.369 c -6.486,0 -11.793,1.887 -11.793,8.02 0,2.475 0.825,5.543 3.537,11.794 h 29.838 l 4.6,-12.03 c 0.59,-1.533 1.062,-3.067 1.062,-4.364 0,-2.477 -1.652,-3.42 -5.072,-3.42 H 52.717 V 0 h 41.277 v 6.369 c -7.43,0.235 -8.845,1.769 -11.557,8.255 L 52.363,86.918 H 43.519 L 15.567,21.347 C 10.85,10.261 5.661,6.841 0,6.369 Z M 28.894,33.258 41.041,62.624 52.717,33.258 Z" /></g><g
         transform="translate(206.5483,309.8809)"
         id="g855"><path
           id="path857"
           style="fill:#112594;fill-opacity:1;fill-rule:nonzero;stroke:none"
           d="m 0,0 h 1.67 c 5.503,0 5.799,0.49 5.799,4.226 v 52.382 c 0,4.03 -0.983,5.111 -5.111,5.111 H -0.59 v 4.815 l 23.194,1.082 V 4.226 C 22.604,0.49 22.899,0 28.403,0 h 1.67 V -4.816 H 0 Z" /></g><g
         transform="translate(240.5513,350.666)"
         id="g859"><path
           id="path861"
           style="fill:#112594;fill-opacity:1;fill-rule:nonzero;stroke:none"
           d="m 0,0 23.194,1.081 v -30.173 c 0,-6.879 2.948,-9.336 6.879,-9.336 6.094,0 10.714,4.914 10.714,14.546 v 13.955 c 0,4.031 -0.984,5.111 -5.111,5.111 H 32.727 V 0 l 23.194,1.081 v -35.676 c 0,-4.028 0.983,-5.11 5.111,-5.11 h 2.948 v -4.816 l -22.604,-1.081 v 8.157 h -0.197 c -3.832,-6.092 -9.729,-9.631 -17.395,-9.631 -12.678,0 -15.724,8.747 -15.724,18.378 v 18.771 c 0,4.031 -0.983,5.111 -5.111,5.111 H 0 Z" /></g><g
         transform="translate(315.9316,340.7393)"
         id="g863"><path
           id="path865"
           style="fill:#112594;fill-opacity:1;fill-rule:nonzero;stroke:none"
           d="m 0,0 c 0,4.03 -0.982,5.111 -5.11,5.111 h -2.949 v 4.816 l 22.801,1.081 V 3.833 h 0.197 c 3.341,5.209 8.452,8.157 15.332,8.157 5.699,0 11.301,-2.457 13.857,-8.55 3.637,5.307 9.828,8.55 14.742,8.55 9.434,0 16.215,-4.914 16.215,-16.608 v -22.015 c 0,-3.735 0.295,-4.225 5.799,-4.225 h 1.769 v -4.817 H 54.251 v 4.817 h 1.08 c 4.324,0 4.62,0.49 4.62,4.225 v 21.13 c 0,6.879 -2.458,8.845 -6.388,8.845 -3.146,0 -8.452,-2.851 -8.452,-12.58 v -17.395 c 0,-3.735 0.294,-4.225 4.618,-4.225 h 1.081 v -4.817 H 24.275 v 4.817 h 1.081 c 4.325,0 4.62,0.49 4.62,4.225 v 21.13 c 0,6.879 -2.457,8.845 -6.389,8.845 -3.145,0 -8.451,-2.851 -8.451,-12.58 v -17.395 c 0,-3.735 0.294,-4.225 4.618,-4.225 h 1.081 v -4.817 H -7.469 v 4.817 h 1.671 c 5.504,0 5.798,0.49 5.798,4.225 z" /></g><g
         transform="translate(419.0273,377.4966)"
         id="g867"><path
           id="path869"
           style="fill:#112594;fill-opacity:1;fill-rule:nonzero;stroke:none"
           d="m 0,0 c 4.618,0 8.451,-3.833 8.451,-8.453 0,-4.618 -3.833,-8.451 -8.451,-8.451 -4.62,0 -8.453,3.833 -8.453,8.451 C -8.453,-3.833 -4.62,0 0,0 m -15.038,-67.616 h 1.672 c 5.504,0 5.799,0.491 5.799,4.226 v 26.633 c 0,4.03 -0.984,5.111 -5.112,5.111 h -2.948 v 4.815 l 23.194,1.081 v -37.64 c 0,-3.735 0.295,-4.226 5.798,-4.226 h 1.671 v -4.816 h -30.074 z" /></g><g
         transform="translate(439.4687,309.8809)"
         id="g871"><path
           id="path873"
           style="fill:#112594;fill-opacity:1;fill-rule:nonzero;stroke:none"
           d="M 0,0 H 1.671 C 7.174,0 7.47,0.49 7.47,4.226 v 26.632 c 0,4.031 -0.984,5.111 -5.112,5.111 H -0.59 v 4.816 l 23.194,1.081 v -7.961 h 0.197 c 3.144,5.602 8.845,8.944 16.314,8.944 9.435,0 16.216,-4.914 16.216,-16.609 V 4.226 C 55.331,0.49 55.626,0 61.13,0 H 62.8 V -4.816 H 33.317 V 0 h 1.08 c 5.505,0 5.799,0.49 5.799,4.226 v 21.03 c 0,5.21 -2.456,8.944 -7.175,8.944 -5.602,0 -10.417,-5.013 -10.417,-14.938 V 4.226 C 22.604,0.49 22.899,0 28.402,0 h 1.081 V -4.816 H 0 Z" /></g><g
         transform="translate(504.2344,350.666)"
         id="g875"><path
           id="path877"
           style="fill:#112594;fill-opacity:1;fill-rule:nonzero;stroke:none"
           d="m 0,0 23.195,1.081 v -30.173 c 0,-6.879 2.948,-9.336 6.878,-9.336 6.095,0 10.713,4.914 10.713,14.546 v 13.955 c 0,4.031 -0.983,5.111 -5.11,5.111 H 32.727 V 0 l 23.195,1.081 v -35.676 c 0,-4.028 0.982,-5.11 5.109,-5.11 h 2.949 v -4.816 l -22.604,-1.081 v 8.157 H 41.18 c -3.833,-6.092 -9.731,-9.631 -17.397,-9.631 -12.678,0 -15.723,8.747 -15.723,18.378 v 18.771 c 0,4.031 -0.984,5.111 -5.111,5.111 H 0 Z" /></g><g
         transform="translate(579.6152,340.7393)"
         id="g879"><path
           id="path881"
           style="fill:#112594;fill-opacity:1;fill-rule:nonzero;stroke:none"
           d="m 0,0 c 0,4.03 -0.983,5.111 -5.111,5.111 h -2.948 v 4.816 l 22.8,1.081 V 3.833 h 0.197 c 3.342,5.209 8.453,8.157 15.333,8.157 5.699,0 11.301,-2.457 13.856,-8.55 3.637,5.307 9.828,8.55 14.742,8.55 9.435,0 16.217,-4.914 16.217,-16.608 v -22.015 c 0,-3.735 0.294,-4.225 5.798,-4.225 h 1.768 v -4.817 H 54.25 v 4.817 h 1.081 c 4.324,0 4.618,0.49 4.618,4.225 v 21.13 c 0,6.879 -2.456,8.845 -6.387,8.845 -3.145,0 -8.453,-2.851 -8.453,-12.58 v -17.395 c 0,-3.735 0.295,-4.225 4.62,-4.225 h 1.082 v -4.817 H 24.275 v 4.817 h 1.08 c 4.325,0 4.62,0.49 4.62,4.225 v 21.13 c 0,6.879 -2.457,8.845 -6.388,8.845 -3.145,0 -8.452,-2.851 -8.452,-12.58 v -17.395 c 0,-3.735 0.295,-4.225 4.619,-4.225 h 1.081 v -4.817 H -7.47 v 4.817 h 1.671 c 5.504,0 5.799,0.49 5.799,4.225 z" /></g><g
         transform="translate(139.4966,198.4043)"
         id="g883"><path
           id="path885"
           style="fill:#112594;fill-opacity:1;fill-rule:nonzero;stroke:none"
           d="m 0,0 h 34.201 v 6.369 c -6.486,0 -11.794,1.887 -11.794,8.019 0,2.477 0.826,5.544 3.538,11.795 h 29.839 l 4.598,-12.031 c 0.591,-1.532 1.062,-3.065 1.062,-4.363 0,-2.477 -1.652,-3.42 -5.071,-3.42 H 52.717 V 0 h 41.277 v 6.369 c -7.43,0.235 -8.845,1.769 -11.558,8.255 L 52.363,86.918 H 43.518 L 15.567,21.346 C 10.85,10.261 5.661,6.841 0,6.369 Z M 28.894,33.259 41.042,62.623 52.717,33.259 Z" /></g><g
         transform="translate(247.3652,210.44966)"
         id="g887"><path
           id="path889"
           style="fill:#112594;fill-opacity:1;fill-rule:nonzero;stroke:none"
           d="M 0,0 H -3.931 L -4.324,16.904 H 0.197 C 3.735,8.943 9.436,3.342 17.789,3.342 c 5.995,0 8.747,2.359 8.747,6.192 0,2.85 -3.047,4.815 -8.255,5.897 l -7.274,1.473 c -10.122,2.065 -14.643,7.569 -14.643,15.037 0,10.32 8.845,15.724 19.164,15.724 3.834,0 8.256,-1.08 11.893,-3.242 l 3.734,2.261 h 4.128 L 35.676,31.45 h -4.521 c -4.226,7.469 -9.533,11.401 -15.528,11.401 -5.11,0 -8.649,-2.065 -8.649,-6.094 0,-2.261 1.67,-3.538 5.701,-4.522 l 13.463,-3.438 c 7.175,-1.867 11.598,-6.88 11.598,-13.661 0,-9.435 -6.978,-16.61 -20.54,-16.61 -5.308,0 -11.205,1.868 -13.268,3.342 z" /></g><g
         transform="translate(296.5054,210.44966)"
         id="g891"><path
           id="path893"
           style="fill:#112594;fill-opacity:1;fill-rule:nonzero;stroke:none"
           d="M 0,0 H -3.93 L -4.324,16.904 H 0.197 C 3.735,8.943 9.435,3.342 17.789,3.342 c 5.995,0 8.747,2.359 8.747,6.192 0,2.85 -3.047,4.815 -8.256,5.897 l -7.273,1.473 c -10.122,2.065 -14.643,7.569 -14.643,15.037 0,10.32 8.845,15.724 19.165,15.724 3.832,0 8.255,-1.08 11.89,-3.242 l 3.735,2.261 h 4.129 L 35.675,31.45 h -4.521 c -4.225,7.469 -9.532,11.401 -15.527,11.401 -5.111,0 -8.648,-2.065 -8.648,-6.094 0,-2.261 1.67,-3.538 5.699,-4.522 l 13.465,-3.438 c 7.173,-1.867 11.596,-6.88 11.596,-13.661 0,-9.435 -6.977,-16.61 -20.54,-16.61 -5.307,0 -11.204,1.868 -13.268,3.342 z" /></g><g
         transform="translate(339.748,233.54636)"
         id="g895"><path
           id="path897"
           style="fill:#112594;fill-opacity:1;fill-rule:nonzero;stroke:none"
           d="m 0,0 c 0,-14.939 12.384,-24.57 26.831,-24.57 14.545,0 26.928,9.631 26.928,24.57 0,14.938 -12.383,24.568 -26.928,24.568 C 12.384,24.568 0,14.938 0,0 m 16.904,0 c 0,12.875 3.146,19.754 9.927,19.754 6.88,0 10.024,-6.879 10.024,-19.754 0,-12.875 -3.144,-19.755 -10.024,-19.755 -6.781,0 -9.927,6.88 -9.927,19.755" /></g><g
         transform="translate(448.1494,226.07656)"
         id="g899"><path
           id="path901"
           style="fill:#112594;fill-opacity:1;fill-rule:nonzero;stroke:none"
           d="m 0,0 c -3.242,-10.811 -10.515,-17.101 -21.916,-17.101 -21.818,0 -26.437,15.43 -26.437,24.571 0,14.938 12.384,24.568 26.634,24.568 9.73,0 20.934,-3.143 20.934,-13.169 0,-5.208 -3.637,-8.452 -8.746,-8.452 -4.424,0 -8.158,3.146 -8.158,7.077 0,4.127 3.145,5.208 3.145,7.175 0,1.572 -2.654,2.555 -5.504,2.555 -6.29,0 -11.4,-5.603 -11.4,-18.378 0,-10.909 3.537,-19.263 12.383,-19.263 6.683,0 11.597,4.127 14.348,11.989 z" /></g><g
         transform="translate(469.4766,282.88226)"
         id="g903"><path
           id="path905"
           style="fill:#112594;fill-opacity:1;fill-rule:nonzero;stroke:none"
           d="m 0,0 c 4.619,0 8.453,-3.832 8.453,-8.452 0,-4.619 -3.834,-8.451 -8.453,-8.451 -4.618,0 -8.451,3.832 -8.451,8.451 C -8.451,-3.832 -4.618,0 0,0 m -15.036,-67.616 h 1.671 c 5.503,0 5.798,0.492 5.798,4.226 v 26.634 c 0,4.029 -0.983,5.11 -5.111,5.11 h -2.948 v 4.815 l 23.193,1.082 V -63.39 c 0,-3.734 0.296,-4.226 5.799,-4.226 h 1.672 v -4.817 h -30.074 z" /></g><g
         transform="translate(523.6289,238.65566)"
         id="g907"><path
           id="path909"
           style="fill:#112594;fill-opacity:1;fill-rule:nonzero;stroke:none"
           d="m 0,0 c -25.062,-4.226 -32.04,-9.631 -32.04,-18.378 0,-7.666 5.995,-11.302 15.037,-11.302 7.863,0 14.447,2.456 19.066,6.783 1.278,-4.031 5.798,-6.783 10.615,-6.783 5.208,0 10.417,4.03 10.417,7.96 0,1.081 -0.589,1.574 -1.474,1.574 -1.768,0 -2.358,-1.475 -4.029,-1.475 -1.476,0 -2.457,1.572 -2.457,6.29 V 4.521 c 0,11.893 -10.712,14.938 -22.211,14.938 -14.251,0 -22.31,-5.502 -22.31,-12.48 0,-5.208 4.127,-7.469 7.666,-7.469 5.11,0 8.059,2.848 8.059,6.486 0,2.85 -2.457,3.734 -2.457,5.307 0,1.572 2.261,3.342 7.076,3.342 C -2.654,14.645 0,12.09 0,5.013 Z m 0,-11.302 c 0,-7.272 -4.03,-11.694 -9.337,-11.694 -4.029,0 -6.486,2.555 -6.486,6.78 0,6.389 3.93,9.042 15.823,11.402 z" /></g><g
         transform="translate(547.8047,251.23576)"
         id="g911"><path
           id="path913"
           style="fill:#112594;fill-opacity:1;fill-rule:nonzero;stroke:none"
           d="m 0,0 v 5.308 c 9.238,1.081 14.152,6.879 16.216,20.245 h 5.896 V 5.897 H 35.086 V 0 H 22.112 v -27.911 c 0,-3.932 0.786,-6.29 3.932,-6.29 4.423,0 6.388,5.799 6.388,11.794 h 5.307 c 0,-11.498 -4.324,-19.853 -16.609,-19.853 -11.499,0 -14.152,5.7 -14.152,17.199 L 6.978,0 Z" /></g><g
         transform="translate(640.875,232.85786)"
         id="g915"><path
           id="path917"
           style="fill:#112594;fill-opacity:1;fill-rule:nonzero;stroke:none"
           d="m 0,0 c 0.197,14.742 -7.765,25.257 -23.292,25.257 -14.447,0 -26.83,-9.63 -26.83,-24.569 0,-14.939 12.383,-24.57 26.83,-24.57 11.203,0 18.673,4.522 23.292,15.135 l -4.423,1.868 c -3.931,-7.962 -8.846,-11.106 -14.545,-11.106 -9.434,0 -14.251,6.88 -14.251,15.922 V 0 Z m -33.219,4.816 c 0,7.469 2.655,15.626 9.73,15.626 5.11,0 8.354,-3.931 8.354,-12.186 0,-2.654 -0.688,-3.44 -3.343,-3.44 z" /></g><g
         transform="translate(653.0605,210.44966)"
         id="g919"><path
           id="path921"
           style="fill:#112594;fill-opacity:1;fill-rule:nonzero;stroke:none"
           d="m 0,0 h -3.931 l -0.393,16.904 h 4.52 C 3.734,8.943 9.435,3.342 17.788,3.342 c 5.995,0 8.747,2.359 8.747,6.192 0,2.85 -3.047,4.815 -8.256,5.897 l -7.271,1.473 c -10.124,2.065 -14.645,7.569 -14.645,15.037 0,10.32 8.846,15.724 19.165,15.724 3.833,0 8.255,-1.08 11.893,-3.242 l 3.734,2.261 h 4.127 L 35.675,31.45 h -4.52 c -4.227,7.469 -9.534,11.401 -15.528,11.401 -5.111,0 -8.648,-2.065 -8.648,-6.094 0,-2.261 1.669,-3.538 5.699,-4.522 l 13.465,-3.438 c 7.174,-1.867 11.597,-6.88 11.597,-13.661 0,-9.435 -6.978,-16.61 -20.541,-16.61 -5.307,0 -11.204,1.868 -13.267,3.342 z" /></g><g
         transform="translate(261.2969,383.3022)"
         id="g931"><path
           id="path933"
           style="fill:#112594;fill-opacity:1;fill-rule:nonzero;stroke:none"
           d="m 0,0 h 1.281 l -1.252,-7.567 -1.425,0.262 c -0.175,4.773 -2.678,6.432 -5.618,6.432 -2.766,0 -4.221,-1.31 -4.221,-3.26 0,-4.744 10.915,-2.124 10.915,-10.449 0,-4.307 -4.221,-6.607 -8.616,-6.607 -2.648,0 -4.569,0.669 -6.169,2.387 l -1.718,-1.95 h -1.251 l 1.454,8.208 1.456,-0.263 c 0,-3.813 1.775,-6.956 6.578,-6.956 2.183,0 4.396,1.077 4.396,3.552 0,5.063 -10.915,2.095 -10.915,10.07 0,3.901 3.404,6.84 7.857,6.84 2.155,0 4.221,-0.728 5.763,-2.27 z" /></g><g
         transform="translate(270.1743,384.0015)"
         id="g935"><path
           id="path937"
           style="fill:#112594;fill-opacity:1;fill-rule:nonzero;stroke:none"
           d="m 0,0 c 1.339,0 2.416,-1.078 2.416,-2.416 0,-1.339 -1.077,-2.416 -2.416,-2.416 -1.339,0 -2.416,1.077 -2.416,2.416 C -2.416,-1.078 -1.339,0 0,0 m -6.083,-7.888 7.625,0.32 c -3.463,-10.682 -3.579,-11.119 -3.579,-11.556 0,-0.377 0.145,-0.553 0.495,-0.553 0.785,0 1.804,1.252 3.172,3.29 l 1.077,-0.757 c -2.009,-2.939 -3.726,-4.744 -6.141,-4.744 -1.426,0 -2.969,0.902 -2.969,2.561 0,1.63 2.416,7.947 2.416,9.111 0,0.814 -0.349,1.076 -1.601,1.076 h -0.815 z" /></g><g
         transform="translate(275.064,376.1133)"
         id="g939"><path
           id="path941"
           style="fill:#112594;fill-opacity:1;fill-rule:nonzero;stroke:none"
           d="m 0,0 7.015,0.32 -0.99,-3.987 0.058,-0.059 c 2.008,2.795 3.755,4.046 6.055,4.046 1.746,0 3.201,-1.018 3.201,-3.201 0,-1.892 -2.561,-7.539 -2.561,-8.266 0,-0.35 0.174,-0.466 0.465,-0.466 0.407,0 1.194,0.378 3.115,3.143 l 1.047,-0.727 C 16.038,-11.351 14.116,-14 11.263,-14 c -1.484,0 -2.851,0.815 -2.851,2.446 0,1.774 2.561,7.187 2.561,8.585 0,0.67 -0.379,0.903 -0.816,0.903 -1.542,0 -3.549,-2.562 -4.278,-3.958 C 4.947,-7.83 4.366,-9.955 3.463,-13.563 h -4.657 l 2.678,8.615 c 0.553,1.776 0.728,2.328 0.728,2.62 0,0.814 -0.349,1.076 -1.601,1.076 H -0.32 Z" /></g><g
         transform="translate(306.2368,365.8682)"
         id="g943"><path
           id="path945"
           style="fill:#112594;fill-opacity:1;fill-rule:nonzero;stroke:none"
           d="m 0,0 c -1.834,-2.096 -3.726,-3.755 -6.694,-3.755 -3.318,0 -6.026,1.863 -6.026,5.385 0,5.588 4.686,8.935 9.198,8.935 2.503,0 4.832,-1.105 4.832,-3.9 0,-1.514 -1.136,-2.502 -2.621,-2.502 -1.221,0 -2.037,0.988 -2.037,2.182 0,1.572 1.426,1.513 1.426,2.182 0,0.408 -0.379,0.787 -1.309,0.787 -1.019,0 -1.805,-0.496 -2.881,-1.921 -0.874,-1.164 -1.95,-4.249 -1.95,-6.491 0,-1.659 0.755,-2.91 2.59,-2.91 1.514,0 2.969,1.135 4.453,2.881 z" /></g><g
         transform="translate(320.4106,366.1011)"
         id="g947"><path
           id="path949"
           style="fill:#112594;fill-opacity:1;fill-rule:nonzero;stroke:none"
           d="m 0,0 c -1.572,-1.601 -2.911,-2.417 -4.337,-2.417 -1.892,0 -2.736,1.048 -2.736,2.882 0,0.408 0.058,0.844 0.117,1.252 2.969,0.175 9.343,1.194 9.343,5.123 0,2.096 -2.067,3.493 -4.774,3.493 -4.889,0 -9.168,-4.134 -9.168,-9.024 0,-3.754 2.416,-5.297 5.937,-5.297 2.649,0 4.803,1.077 6.55,3.027 z m -1.106,7.654 c 0,-2.445 -2.707,-4.365 -5.646,-4.686 0.756,3.784 2.531,6.113 4.278,6.113 0.845,0 1.368,-0.669 1.368,-1.427" /></g><g
         transform="translate(333.7993,381.0029)"
         id="g951"><path
           id="path953"
           style="fill:#112594;fill-opacity:1;fill-rule:nonzero;stroke:none"
           d="m 0,0 c 2.998,0.175 5.966,0.728 8.004,2.066 h 1.251 c -4.569,-16.124 -4.889,-17.23 -4.889,-17.841 0,-0.728 0.669,-1.251 1.63,-1.251 H 8.091 L 7.713,-18.453 H -4.25 l 0.378,1.427 c 2.882,0.115 3.523,0.32 3.842,1.542 l 2.649,9.663 c 0.727,2.678 0.902,3.377 0.902,3.668 0,0.524 -0.465,0.727 -1.688,0.727 h -2.211 z" /></g><g
         transform="translate(344.4805,375.3281)"
         id="g955"><path
           id="path957"
           style="fill:#112594;fill-opacity:1;fill-rule:nonzero;stroke:none"
           d="m 0,0 c 0,-3.174 2.241,-5.27 5.355,-5.27 1.165,0 2.184,0.292 3.172,0.99 -0.493,-2.299 -2.269,-7.509 -5.151,-7.509 -0.668,0 -1.105,0.233 -1.105,0.466 0,0.611 0.814,0.902 0.814,1.921 0,1.31 -0.844,2.241 -2.183,2.241 -1.484,0 -2.473,-1.019 -2.473,-2.503 0,-1.63 1.425,-3.551 5.151,-3.551 5.909,0 10.653,6.956 10.653,13.825 0,3.988 -2.037,7.131 -6.345,7.131 C 3.435,7.741 0,3.695 0,0 m 9.867,3.202 c 0,-4.135 -1.281,-6.724 -3.115,-6.724 -1.484,0 -2.095,0.873 -2.095,3.288 0,4.134 1.281,6.723 3.115,6.723 1.484,0 2.095,-0.872 2.095,-3.287" /></g><g
         transform="translate(371.811,379.2568)"
         id="g959"><path
           id="path961"
           style="fill:#112594;fill-opacity:1;fill-rule:nonzero;stroke:none"
           d="m 0,0 c 0,-1.31 0.844,-2.241 2.182,-2.241 1.485,0 2.474,1.018 2.474,2.503 0,1.63 -1.426,3.551 -5.151,3.551 -5.909,0 -10.653,-6.957 -10.653,-13.825 0,-3.988 2.038,-7.132 6.345,-7.132 4.453,0 7.888,4.046 7.888,7.743 0,3.172 -2.241,5.267 -5.356,5.267 -1.164,0 -2.182,-0.29 -3.172,-0.989 0.495,2.3 2.27,7.511 5.152,7.511 0.669,0 1.105,-0.235 1.105,-0.467 C 0.814,1.31 0,1.019 0,0 m -1.572,-9.168 c 0,-4.134 -1.28,-6.724 -3.115,-6.724 -1.483,0 -2.095,0.873 -2.095,3.289 0,4.133 1.281,6.724 3.115,6.724 1.484,0 2.095,-0.873 2.095,-3.289" /></g><g
         transform="translate(383.6567,372.4751)"
         id="g963"><path
           id="path965"
           style="fill:#112594;fill-opacity:1;fill-rule:nonzero;stroke:none"
           d="m 0,0 c -0.496,0 -1.019,-0.35 -1.602,-0.35 -0.609,0 -0.988,0.379 -0.988,1.048 0,0.467 0.379,0.932 0.988,0.932 0.408,0 1.02,-0.379 1.748,-0.379 1.95,0 3.492,2.765 3.492,5.036 0,1.659 -0.844,2.882 -2.619,2.882 -1.718,0 -2.475,-0.874 -2.475,-1.252 0,-0.611 1.514,-0.786 1.514,-2.299 0,-1.31 -1.019,-2.096 -2.269,-2.096 -1.515,0 -2.388,1.165 -2.388,2.561 0,2.329 2.62,4.511 6.52,4.511 3.9,0 6.2,-2.124 6.2,-4.539 0,-3.493 -3.115,-5.153 -6.229,-5.473 V 0.523 c 2.415,-0.115 4.744,-1.483 4.744,-4.249 0,-3.958 -3.435,-6.636 -8.149,-6.636 -4.396,0 -6.171,2.357 -6.171,4.715 0,1.542 0.932,2.911 2.59,2.911 1.281,0 2.416,-0.902 2.416,-2.241 0,-2.067 -2.125,-1.717 -2.125,-2.503 0,-0.698 0.931,-1.456 2.678,-1.456 2.154,0 4.104,2.445 4.104,5.792 C 1.979,-1.047 1.338,0 0,0" /></g><g
         transform="translate(441.0166,362.4834)"
         id="g967"><path
           id="path969"
           style="fill:#112594;fill-opacity:1;fill-rule:nonzero;stroke:none"
           d="m 0,0 -0.203,3.507 c -0.101,1.714 -0.146,4.252 -0.146,5.885 0,20.764 7.542,40.756 21.24,56.318 -0.581,4.066 -0.849,11.411 3.495,16.401 l 1.076,1.239 1.568,0.04 c 0.251,0.012 0.511,0.018 0.768,0.018 4.167,0 7.706,-1.573 9.993,-2.939 14.015,9.303 30.29,14.201 47.138,14.201 15.208,0 30.138,-4.054 43.179,-11.724 12.652,-7.444 23.237,-18.087 30.611,-30.779 0.044,-0.075 4.316,-7.396 13.127,-15.344 8.06,-7.273 21.7,-16.585 40.904,-19.647 l 3.142,-0.5 V 1.588 l -2.895,-0.664 c -6.578,-1.508 -13.17,-2.273 -19.593,-2.273 -27.675,0 -47.446,13.942 -57.552,23.244 l 2.631,-4.972 c 1.979,-4.846 1.952,-8.885 -0.298,-12.012 -3.213,-4.47 -9.511,-4.953 -12.07,-4.953 -0.39,0 -0.69,0.011 -0.874,0.021 H 26.564 L 57.09,30.587 c -0.711,0.577 -2.313,2.29 -2.982,2.93 -3.125,-7 -9.013,-13.112 -19.799,-13.112 -3.873,0 -6.783,-1.093 -8.895,-3.342 -4.398,-4.679 -4.5,-12.817 -4.48,-13.159 l 0.091,-3.887 z" /></g><path
         d="m 468.2148,442.1489 c -4.752,-5.462 -2.263,-15.038 -2.263,-15.038 -13.383,-14.527 -21.555,-33.926 -21.555,-55.235 0,-1.618 0.047,-4.074 0.138,-5.668 l 14.215,0.042 c 0,0 -1.403,20.367 16.575,20.367 11.496,0 16.175,8.133 19.05,15.508 0,0 3.806,-5.684 9.267,-8.876 l -27.058,-27.058 h 89.788 c 0,0 15.003,-0.035 9.786,11.809 l -8.075,14.39 3.829,2.836 c 0,0 29.919,-39.957 81.268,-28.184 v 8.936 c -39.149,6.241 -56.669,36.8 -56.669,36.8 -14.119,24.305 -40.434,40.647 -70.566,40.647 -17.563,0 -33.83,-5.552 -47.14,-14.998 0,0 -4.633,4.004 -10.59,3.722"
         style="fill:#ffffff;fill-opacity:1;fill-rule:nonzero;stroke:none"
         id="path973" /><path
         d="m 553.6055,392.3345 c -7.234,0 -14.16,3.792 -18.075,9.895 l -0.08,0.125 -0.087,-0.12 c -4.041,-5.675 -10.577,-9.048 -17.503,-9.048 -7.359,0 -16.193,4.48 -20.86,12.064 l -15.381,29.553 0.229,0.161 c 4.396,3.102 8.893,5.583 13.819,7.693 l 0.3,0.128 14.253,-38.843 c 0.235,-0.648 0.857,-1.084 1.546,-1.084 0.191,0 0.38,0.033 0.563,0.1 0.852,0.311 1.294,1.257 0.984,2.11 l -14.261,39.042 0.289,0.107 c 4.853,1.801 9.971,3.091 15.213,3.835 l 0.297,0.042 7.266,-41.35 c 0.138,-0.789 0.82,-1.361 1.62,-1.361 0.095,0 0.191,0.008 0.288,0.025 0.893,0.158 1.493,1.014 1.335,1.908 l -7.298,41.154 0.336,0.031 c 2.465,0.226 5.004,0.341 7.547,0.341 2.512,0 5.026,-0.11 7.473,-0.326 l 0.283,-0.024 0.04,-37.089 c 0,-0.908 0.737,-1.646 1.644,-1.646 0.908,0 1.647,0.738 1.647,1.646 l -0.016,36.719 0.352,-0.048 c 4.86,-0.664 9.955,-1.906 15.14,-3.692 l 0.25,-0.086 -6.654,-37.836 c -0.157,-0.894 0.442,-1.749 1.335,-1.907 0.097,-0.017 0.192,-0.026 0.287,-0.026 0.8,0 1.482,0.573 1.621,1.361 l 6.545,37.303 0.355,-0.144 c 5.17,-2.1 10.109,-4.795 14.681,-8.009 l 0.21,-0.149 -14.259,-31.081 c -0.186,-0.4 -0.206,-0.849 -0.055,-1.262 0.15,-0.413 0.452,-0.742 0.849,-0.927 0.221,-0.103 0.454,-0.155 0.696,-0.155 0.637,0 1.224,0.373 1.494,0.952 l 14.212,30.431 0.307,-0.243 c 5.006,-3.967 9.905,-9.164 14.117,-15.03 l 0.153,-0.213 -20.644,-20.735 c -2.776,-2.774 -10.489,-4.292 -14.403,-4.292"
         style="fill:#112594;fill-opacity:1;fill-rule:nonzero;stroke:none"
         id="path977" /><g
         transform="translate(635.4961,369.4277)"
         id="g979"><path
           id="path981"
           style="fill:#112594;fill-opacity:1;fill-rule:nonzero;stroke:none"
           d="m 0,0 c -37.712,-0.001 -60.42,28.201 -60.646,28.485 l -0.17,0.217 16.019,16.02 0.199,-0.363 c 0.019,-0.035 2.016,-3.666 5.85,-8.575 l 0.169,-0.216 -8.656,-8.667 c -0.489,-0.489 -0.489,-1.284 0,-1.773 0.236,-0.237 0.55,-0.368 0.886,-0.368 0.336,0 0.651,0.131 0.887,0.368 l 8.457,8.45 0.219,-0.26 c 2.159,-2.574 4.846,-5.387 7.767,-8.137 l 0.233,-0.219 -7.141,-7.169 c -0.488,-0.489 -0.488,-1.285 0,-1.774 0.239,-0.237 0.553,-0.368 0.887,-0.368 0.335,0 0.649,0.131 0.888,0.368 l 7.283,7.268 0.218,-0.192 c 3,-2.637 5.819,-4.832 8.872,-6.908 l 0.247,-0.167 -3.706,-5.953 c -0.366,-0.587 -0.189,-1.362 0.398,-1.729 0.199,-0.125 0.428,-0.191 0.662,-0.191 0.437,0 0.835,0.221 1.067,0.59 l 3.645,5.902 0.266,-0.167 C -7.226,9.462 1.429,5.824 10.521,3.661 12.433,3.206 13.346,2.671 13.314,2.025 13.282,1.392 12.358,0.961 10.49,0.71 6.989,0.239 3.46,0 0,0" /></g><g
         transform="translate(448.9375,369.9224)"
         id="g983"><path
           id="path985"
           style="fill:#112594;fill-opacity:1;fill-rule:nonzero;stroke:none"
           d="M 0,0 -0.007,0.304 C -0.015,0.646 0,0.927 0.016,1.213 0.028,1.467 0.04,1.691 0.04,1.953 c 0,20.066 7.676,39.058 21.613,53.478 l 0.053,0.054 -0.037,0.066 C 18.332,62.213 20.8,67.928 20.906,68.168 l 0.095,0.213 0.231,-0.031 c 4.531,-0.603 6.813,-3.282 8.938,-6.024 l 9.723,-18.663 c 3,-6.25 2.553,-10.83 -0.414,-15.169 -3.226,-4.719 -7,-8.041 -15.625,-8.041 C 7.485,20.453 6.519,0.495 6.507,0.284 L 6.49,-0.011 Z" /></g><g
         transform="translate(528.417,380.583)"
         id="g987"><path
           id="path989"
           style="fill:#112594;fill-opacity:1;fill-rule:nonzero;stroke:none"
           d="m 0,0 c 0.097,-0.199 2.505,-4.753 0.457,-8.008 -1.118,-1.777 -3.317,-2.678 -6.535,-2.678 -0.218,0 -0.439,0.004 -0.669,0.013 -0.03,0 -36.52,-10e-4 -36.52,-10e-4 l 21.827,22.082 0.211,-0.108 c 3.455,-1.763 6.769,-2.656 10.672,-2.656 1.753,0 3.499,0.186 5.192,0.553 z" /></g><g
         transform="translate(563.7842,369.8901)"
         id="g991"><path
           id="path993"
           style="fill:#112594;fill-opacity:1;fill-rule:nonzero;stroke:none"
           d="m 0,0 c -0.217,0 -0.439,0.004 -0.668,0.012 -0.034,10e-4 -33.955,0 -33.955,0 l 18.9,19.157 0.138,-0.08 c 1.78,-0.406 3.549,-0.603 5.406,-0.603 3.533,0 7.866,0.883 11.05,2.338 L 1.133,20.943 7.3,10.36 C 8.747,7.829 10.591,5.735 8.967,2.693 7.491,-0.07 3.22,0 0,0" /></g><g
         transform="translate(526.1533,390.6558)"
         id="g995"><path
           id="path997"
           style="fill:#112594;fill-opacity:1;fill-rule:nonzero;stroke:none"
           d="m 0,0 c 3.314,1.2 6.404,3.153 8.936,5.649 l 0.21,0.206 0.607,-0.558 c 2.515,-2.638 5.465,-4.549 8.845,-5.836 L 6.93,-12.239 Z" /></g><g
         transform="translate(539.5625,389.0625)"
         id="g999"><path
           id="path1001"
           style="fill:#ffffff;fill-opacity:1;fill-rule:nonzero;stroke:none"
           d="M 0,0 C -1.687,1 -4.25,3.5 -4.25,3.5 -5.395,2.372 -7.235,0.994 -8.938,0.25 l 3.376,-5.687 z" /></g><g
         transform="translate(504.668,374.2046)"
         id="g1003"><path
           id="path1005"
           style="fill:#ffffff;fill-opacity:1;fill-rule:nonzero;stroke:none"
           d="M 0,0 H 11.197 L 6.889,7.411 c 0,0 -4.213,-4.351 -7.208,-7.411 z" /></g><g
         transform="translate(499.2783,374.2046)"
         id="g1007"><path
           id="path1009"
           style="fill:#ffffff;fill-opacity:1;fill-rule:nonzero;stroke:none"
           d="M 0,0 H -4.264 C 8.645,13.192 8.795,13.476 8.795,13.476 l 1.568,-2.82 c 0,0 -5.263,-5.433 -10.425,-10.709" /></g><g
         transform="translate(547.7275,374.1958)"
         id="g1011"><path
           id="path1013"
           style="fill:#ffffff;fill-opacity:1;fill-rule:nonzero;stroke:none"
           d="M 0,0 H 9.493 L 5.612,6.135 c 0,0 -2.938,-3.076 -5.932,-6.135 z" /></g><g
         transform="translate(542.3369,374.1958)"
         id="g1015"><path
           id="path1017"
           style="fill:#ffffff;fill-opacity:1;fill-rule:nonzero;stroke:none"
           d="M 0,0 H -4.264 L 7.519,11.773 9.087,9.379 c 0,0 -3.986,-4.156 -9.149,-9.432" /></g><g
         transform="translate(473.6055,406.7363)"
         id="g1019"><path
           id="path1021"
           style="fill:#ffffff;fill-opacity:1;fill-rule:nonzero;stroke:none"
           d="M 0,0 C 2.165,0 3.921,1.756 3.921,3.923 3.921,6.089 2.165,7.844 0,7.844 -2.166,7.844 -3.923,6.089 -3.923,3.923 -3.923,1.756 -2.166,0 0,0" /></g><rect
         style="fill:#112594;fill-opacity:1;stroke-width:2.83465;stroke-linecap:round"
         id="rect1783"
         width="455.66989"
         height="6.1500001"
         x="206.59727"
         y="-299.85272"
         transform="scale(1,-1)" /><rect
         style="fill:#112594;fill-opacity:1;stroke-width:2.83465;stroke-linecap:round"
         id="rect1785"
         width="447.47272"
         height="6.1500001"
         x="243.32776"
         y="-204.55431"
         transform="scale(1,-1)" /></g></g></svg>
