<?xml version="1.0" encoding="UTF-8" standalone="no"?><!DOCTYPE svg PUBLIC "-//W3C//DTD SVG 1.1//EN" "http://www.w3.org/Graphics/SVG/1.1/DTD/svg11.dtd"><svg class="logo-icon" width="100%" height="100%" viewBox="5 0 220 120" version="1.1" xmlns="http://www.w3.org/2000/svg" xmlns:xlink="http://www.w3.org/1999/xlink" xml:space="preserve" xmlns:serif="http://www.serif.com/" style="fill-rule:evenodd;clip-rule:evenodd;stroke-linejoin:round;stroke-miterlimit:1.41421;"><g id="Layer-1" serif:id="Layer 1"><path d="M5.948,107.898l-0.203,-3.507c-0.101,-1.714 -0.146,-4.252 -0.146,-5.885c0,-20.764 7.542,-40.756 21.24,-56.318c-0.581,-4.066 -0.849,-11.411 3.495,-16.401l1.076,-1.239l1.568,-0.04c0.251,-0.012 0.511,-0.018 0.768,-0.018c4.167,0 7.706,1.573 9.993,2.939c14.015,-9.303 30.29,-14.201 47.138,-14.201c15.208,0 30.138,4.054 43.179,11.724c12.652,7.444 23.237,18.087 30.611,30.779c0.044,0.075 4.316,7.396 13.127,15.344c8.06,7.273 21.7,16.585 40.904,19.647l3.142,0.5l0,15.088l-2.895,0.664c-6.578,1.508 -13.17,2.273 -19.593,2.273c-27.675,0 -47.446,-13.942 -57.552,-23.244l2.631,4.972c1.979,4.846 1.952,8.885 -0.298,12.012c-3.213,4.47 -9.511,4.953 -12.07,4.953c-0.39,0 -0.69,-0.011 -0.874,-0.021l-98.677,0l30.526,-30.608c-0.711,-0.577 -2.313,-2.29 -2.982,-2.93c-3.125,7 -9.013,13.112 -19.799,13.112c-3.873,0 -6.783,1.093 -8.895,3.342c-4.398,4.679 -4.5,12.817 -4.48,13.159l0.091,3.887l-21.025,0.017Zm27.198,-79.666c-4.752,5.462 -2.263,15.038 -2.263,15.038c-13.383,14.527 -21.555,33.926 -21.555,55.235c0,1.618 0.047,4.074 0.138,5.668l14.215,-0.042c0,0 -1.403,-20.367 16.575,-20.367c11.496,0 16.175,-8.133 19.05,-15.508c0,0 3.806,5.684 9.267,8.876l-27.058,27.058l89.788,0c0,0 15.003,0.035 9.786,-11.809l-8.075,-14.39l3.829,-2.836c0,0 29.919,39.957 81.268,28.184l0,-8.936c-39.149,-6.241 -56.669,-36.8 -56.669,-36.8c-14.119,-24.305 -40.434,-40.647 -70.566,-40.647c-17.563,0 -33.83,5.552 -47.14,14.998c0,0 -4.633,-4.004 -10.59,-3.722Zm167.281,72.721c-37.712,0.001 -60.42,-28.201 -60.646,-28.485l-0.17,-0.217l16.019,-16.02l0.199,0.363c0.019,0.035 2.016,3.666 5.85,8.575l0.169,0.216l-8.656,8.667c-0.489,0.489 -0.489,1.284 0,1.773c0.236,0.237 0.55,0.368 0.886,0.368c0.336,0 0.651,-0.131 0.887,-0.368l8.457,-8.45l0.219,0.26c2.159,2.574 4.846,5.387 7.767,8.137l0.233,0.219l-7.141,7.169c-0.488,0.489 -0.488,1.285 0,1.774c0.239,0.237 0.553,0.368 0.887,0.368c0.335,0 0.649,-0.131 0.888,-0.368l7.283,-7.268l0.218,0.192c3,2.637 5.819,4.832 8.872,6.908l0.247,0.167l-3.706,5.953c-0.366,0.587 -0.189,1.362 0.398,1.729c0.199,0.125 0.428,0.191 0.662,0.191c0.437,0 0.835,-0.221 1.067,-0.59l3.645,-5.902l0.266,0.167c7.974,5.01 16.629,8.648 25.721,10.811c1.912,0.455 2.825,0.99 2.793,1.636c-0.032,0.633 -0.956,1.064 -2.824,1.315c-3.501,0.471 -7.03,0.71 -10.49,0.71Zm-71.712,-0.462c-0.217,0 -0.439,-0.004 -0.668,-0.012c-0.034,-0.001 -33.955,0 -33.955,0l18.9,-19.157l0.138,0.08c1.78,0.406 3.549,0.603 5.406,0.603c3.533,0 7.866,-0.883 11.05,-2.338l0.262,-0.119l6.167,10.583c1.447,2.531 3.291,4.625 1.667,7.667c-1.476,2.763 -5.747,2.693 -8.967,2.693Zm-35.367,-10.693c0.097,0.199 2.505,4.753 0.457,8.008c-1.118,1.777 -3.317,2.678 -6.535,2.678c-0.218,0 -0.439,-0.004 -0.669,-0.013c-0.03,0 -36.52,0.001 -36.52,0.001l21.827,-22.082l0.211,0.108c3.455,1.763 6.769,2.656 10.672,2.656c1.753,0 3.499,-0.186 5.192,-0.553l5.365,9.197Zm-79.479,10.661l-0.007,-0.304c-0.008,-0.342 0.007,-0.623 0.023,-0.909c0.012,-0.254 0.024,-0.478 0.024,-0.74c0,-20.066 7.676,-39.058 21.613,-53.478l0.053,-0.054l-0.037,-0.066c-3.337,-6.662 -0.869,-12.377 -0.763,-12.617l0.095,-0.213l0.231,0.031c4.531,0.603 6.813,3.282 8.938,6.024l9.723,18.663c3,6.25 2.553,10.83 -0.414,15.169c-3.226,4.719 -7,8.041 -15.625,8.041c-16.369,0 -17.335,19.958 -17.347,20.169l-0.017,0.295l-6.49,-0.011Zm93.389,-4.274c5.138,-5.251 9.097,-9.379 9.097,-9.379l-1.568,-2.394l-11.783,11.773l4.254,0l-0.052,0.053l0.062,-0.053l-0.01,0Zm-43.059,-0.009c5.146,-5.259 10.373,-10.656 10.373,-10.656l-1.568,-2.82c0,0 -0.15,0.284 -13.059,13.476l4.254,0l-0.052,0.053l0.062,-0.053l-0.01,0Zm57.953,0.009l-3.881,-6.135c0,0 -2.938,3.076 -5.932,6.135l9.813,0Zm-41.356,-0.009l-4.308,-7.411c0,0 -4.213,4.351 -7.208,7.411l11.516,0Zm10.288,-16.451c3.314,-1.2 6.404,-3.153 8.936,-5.649l0.21,-0.206l0.607,0.558c2.515,2.638 5.465,4.549 8.845,5.836l-11.668,11.7l-6.93,-12.239Zm13.41,1.594c-1.687,-1 -4.25,-3.5 -4.25,-3.5c-1.145,1.128 -2.985,2.506 -4.688,3.25l3.376,5.687l5.562,-5.437Zm14.043,-3.272c-7.234,0 -14.16,-3.792 -18.075,-9.895l-0.08,-0.125l-0.087,0.12c-4.041,5.675 -10.577,9.048 -17.503,9.048c-7.359,0 -16.193,-4.48 -20.86,-12.064l-15.381,-29.553l0.229,-0.161c4.396,-3.102 8.893,-5.583 13.819,-7.693l0.3,-0.128l14.253,38.843c0.235,0.648 0.857,1.084 1.546,1.084c0.191,0 0.38,-0.033 0.563,-0.1c0.852,-0.311 1.294,-1.257 0.984,-2.11l-14.261,-39.042l0.289,-0.107c4.853,-1.801 9.971,-3.091 15.213,-3.835l0.297,-0.042l7.266,41.35c0.138,0.789 0.82,1.361 1.62,1.361c0.095,0 0.191,-0.008 0.288,-0.025c0.893,-0.158 1.493,-1.014 1.335,-1.908l-7.298,-41.154l0.336,-0.031c2.465,-0.226 5.004,-0.341 7.547,-0.341c2.512,0 5.026,0.11 7.473,0.326l0.283,0.024l0.04,37.089c0,0.908 0.737,1.646 1.644,1.646c0.908,0 1.647,-0.738 1.647,-1.646l-0.016,-36.719l0.352,0.048c4.86,0.664 9.955,1.906 15.14,3.692l0.25,0.086l-6.654,37.836c-0.157,0.894 0.442,1.749 1.335,1.907c0.097,0.017 0.192,0.026 0.287,0.026c0.8,0 1.482,-0.573 1.621,-1.361l6.545,-37.303l0.355,0.144c5.17,2.1 10.109,4.795 14.681,8.009l0.21,0.149l-14.259,31.081c-0.186,0.4 -0.206,0.849 -0.055,1.262c0.15,0.413 0.452,0.742 0.849,0.927c0.221,0.103 0.454,0.155 0.696,0.155c0.637,0 1.224,-0.373 1.494,-0.952l14.212,-30.431l0.307,0.243c5.006,3.967 9.905,9.164 14.117,15.03l0.153,0.213l-20.644,20.735c-2.776,2.774 -10.489,4.292 -14.403,4.292Zm-80,-14.402c2.165,0 3.921,-1.756 3.921,-3.923c0,-2.166 -1.756,-3.921 -3.921,-3.921c-2.166,0 -3.923,1.755 -3.923,3.921c0,2.167 1.757,3.923 3.923,3.923Z" style="fill:#2856A1;"/></g></svg>